<?xml version="1.0" encoding="UTF-8"?>
<!DOCTYPE svg PUBLIC "-//W3C//DTD SVG 1.1//EN" "http://www.w3.org/Graphics/SVG/1.1/DTD/svg11.dtd">
<svg xmlns="http://www.w3.org/2000/svg" version="1.1" width="290px" height="236px" style="shape-rendering:geometricPrecision; text-rendering:geometricPrecision; image-rendering:optimizeQuality; fill-rule:evenodd; clip-rule:evenodd" xmlns:xlink="http://www.w3.org/1999/xlink">
<g><path style="opacity:0.992" fill="#c3b9ea" d="M 169.5,-0.5 C 171.167,-0.5 172.833,-0.5 174.5,-0.5C 213.472,36.8047 251.805,74.8047 289.5,113.5C 289.5,116.167 289.5,118.833 289.5,121.5C 253.062,158.438 216.395,195.272 179.5,232C 177.568,233.459 175.568,234.625 173.5,235.5C 172.167,235.5 170.833,235.5 169.5,235.5C 162.414,232.235 160.581,226.902 164,219.5C 194.368,188.965 224.868,158.632 255.5,128.5C 256.043,128.44 256.376,128.107 256.5,127.5C 173.169,126.5 89.836,126.167 6.5,126.5C 2.80032,125.467 0.466989,123.134 -0.5,119.5C -0.5,117.5 -0.5,115.5 -0.5,113.5C 1.84425,110.658 4.84425,108.825 8.5,108C 90.8333,107.667 173.167,107.333 255.5,107C 254.956,106.283 254.289,105.783 253.5,105.5C 223.535,75.0347 193.368,44.7013 163,14.5C 160.258,7.32058 162.425,2.32058 169.5,-0.5 Z"/></g>
<g><path style="opacity:0.129" fill="#fafafa" d="M 174.5,-0.5 C 176.5,-0.5 178.5,-0.5 180.5,-0.5C 215.582,36.0829 251.248,72.2496 287.5,108C 288.094,108.464 288.761,108.631 289.5,108.5C 289.5,110.167 289.5,111.833 289.5,113.5C 251.805,74.8047 213.472,36.8047 174.5,-0.5 Z"/></g>
<g><path style="opacity:0.082" fill="#fdfdfd" d="M 163.5,-0.5 C 165.5,-0.5 167.5,-0.5 169.5,-0.5C 162.425,2.32058 160.258,7.32058 163,14.5C 193.368,44.7013 223.535,75.0347 253.5,105.5C 252.798,106.116 251.798,106.116 250.5,105.5C 249.164,103.99 247.997,102.323 247,100.5C 218.972,72.1385 190.639,44.1385 162,16.5C 160.448,14.2318 159.615,11.7318 159.5,9C 159.899,5.37669 161.232,2.21002 163.5,-0.5 Z"/></g>
<g><path style="opacity:0.306" fill="#f6f6f6" d="M 250.5,105.5 C 251.798,106.116 252.798,106.116 253.5,105.5C 254.289,105.783 254.956,106.283 255.5,107C 173.167,107.333 90.8333,107.667 8.5,108C 4.84425,108.825 1.84425,110.658 -0.5,113.5C -0.5,111.833 -0.5,110.167 -0.5,108.5C 1.59321,107.955 3.59321,107.122 5.5,106C 87.166,105.5 168.833,105.333 250.5,105.5 Z"/></g>
<g><path style="opacity:0.31" fill="#ddd8f2" d="M 6.5,126.5 C 89.836,126.167 173.169,126.5 256.5,127.5C 256.376,128.107 256.043,128.44 255.5,128.5C 253.052,127.527 250.385,127.194 247.5,127.5C 166.998,127.833 86.6649,127.499 6.5,126.5 Z"/></g>
<g><path style="opacity:0.053" fill="#f7f7f7" d="M -0.5,119.5 C 0.466989,123.134 2.80032,125.467 6.5,126.5C 86.6649,127.499 166.998,127.833 247.5,127.5C 247.5,127.833 247.5,128.167 247.5,128.5C 168.821,128.178 90.1546,128.512 11.5,129.5C 6.99446,129.381 2.99446,128.048 -0.5,125.5C -0.5,123.5 -0.5,121.5 -0.5,119.5 Z"/></g>
<g><path style="opacity:0.158" fill="#fefefe" d="M 247.5,128.5 C 247.5,128.167 247.5,127.833 247.5,127.5C 250.385,127.194 253.052,127.527 255.5,128.5C 224.868,158.632 194.368,188.965 164,219.5C 160.581,226.902 162.414,232.235 169.5,235.5C 167.5,235.5 165.5,235.5 163.5,235.5C 159.535,230.709 158.702,225.375 161,219.5C 191.167,189.333 221.333,159.167 251.5,129C 250.207,128.51 248.873,128.343 247.5,128.5 Z"/></g>
<g><path style="opacity:0.134" fill="#fdfdfd" d="M 289.5,121.5 C 289.5,123.167 289.5,124.833 289.5,126.5C 252.216,162.117 215.549,198.45 179.5,235.5C 177.5,235.5 175.5,235.5 173.5,235.5C 175.568,234.625 177.568,233.459 179.5,232C 216.395,195.272 253.062,158.438 289.5,121.5 Z"/></g>
</svg>
